<svg width="460" height="117" viewBox="0 0 460 117" fill="none" xmlns="http://www.w3.org/2000/svg">
<mask id="path-1-outside-1_2_5" maskUnits="userSpaceOnUse" x="0.808014" y="-0.463989" width="459" height="117" fill="black">
<rect fill="white" x="0.808014" y="-0.463989" width="459" height="117"/>
<path d="M16.688 109.728C12.592 108.533 9.73335 107.339 8.11201 106.144C6.57601 104.949 5.80801 103.456 5.80801 101.664C5.80801 100.299 6.19201 98.3787 6.96001 95.904C7.72801 93.4294 8.83735 90.528 10.288 87.2C11.824 83.7867 13.616 80.032 15.664 75.936C17.7973 71.84 20.1867 67.4453 22.832 62.752C20.6133 62.6667 18.608 62.624 16.816 62.624C15.1093 62.5387 13.7013 62.496 12.592 62.496C13.104 61.216 14.5547 60.1067 16.944 59.168C19.3333 58.2293 22.4907 57.4187 26.416 56.736C29.744 51.1893 33.2853 45.8987 37.04 40.864C40.88 35.8293 44.72 31.2213 48.56 27.04C52.4 22.7733 56.24 19.0613 60.08 15.904C63.92 12.6613 67.5894 10.1013 71.088 8.22401C71.1734 7.62668 71.216 7.11468 71.216 6.68801C71.3014 6.26134 71.344 5.96268 71.344 5.79201C72.5387 5.79201 74.1174 6.09068 76.08 6.68801C78.128 7.28534 80.0907 8.01068 81.968 8.86401C83.9307 9.71735 85.6374 10.6133 87.088 11.552C88.624 12.4053 89.4774 13.1307 89.648 13.728C86.832 18.6773 84.0587 26.1013 81.328 36C78.5974 45.8133 76.336 57.5894 74.544 71.328C74.1174 74.7414 73.7334 78.624 73.392 82.976C73.136 87.328 73.008 92.192 73.008 97.568C73.008 99.4453 73.008 101.365 73.008 103.328C73.008 105.291 73.0934 107.339 73.264 109.472C73.0934 109.557 72.9227 109.6 72.752 109.6C72.5814 109.6 72.24 109.6 71.728 109.6C70.5334 109.6 69.1254 109.387 67.504 108.96C65.968 108.619 64.432 108.149 62.896 107.552C61.4454 107.04 60.1653 106.443 59.056 105.76C58.032 105.077 57.392 104.48 57.136 103.968C57.0507 102.859 57.008 101.749 57.008 100.64C57.008 99.616 57.008 98.5067 57.008 97.312C57.008 92.0213 57.1787 86.6453 57.52 81.184C57.9467 75.7227 58.6293 70.0907 59.568 64.288C58.3733 64.2027 56.7947 64.1173 54.832 64.032C52.8693 63.8613 50.6507 63.7333 48.176 63.648C45.7867 63.5627 43.184 63.4773 40.368 63.392C37.6374 63.2213 34.9493 63.0933 32.304 63.008C30.256 66.848 28.336 70.688 26.544 74.528C24.752 78.2827 23.216 82.08 21.936 85.92C20.4853 90.016 19.2907 94.112 18.352 98.208C17.4987 102.304 16.944 106.144 16.688 109.728ZM66.096 32.8C66.4373 31.6053 66.8214 29.984 67.248 27.936C67.76 25.8027 68.2294 23.584 68.656 21.28C66.5227 22.048 64.1333 23.456 61.488 25.504C58.928 27.552 56.24 30.112 53.424 33.184C50.6934 36.1707 47.8773 39.584 44.976 43.424C42.16 47.1787 39.4293 51.1893 36.784 55.456C43.952 54.8587 52.1014 54.4747 61.232 54.304C61.9147 50.72 62.64 47.1787 63.408 43.68C64.2614 40.096 65.1574 36.4693 66.096 32.8Z"/>
<path d="M101.629 93.344C102.909 90.528 104.445 86.9013 106.237 82.464C108.029 78.0267 109.906 73.248 111.869 68.128C113.832 62.9227 115.837 57.632 117.885 52.256C119.933 46.7947 121.853 41.632 123.645 36.768C125.437 31.904 126.973 27.552 128.253 23.712C129.618 19.872 130.6 16.928 131.197 14.88C125.821 17.0987 121.213 20.4693 117.373 24.992C113.533 29.5147 110.632 35.1893 108.669 42.016C106.706 41.3333 104.914 40.1387 103.293 38.432C101.672 36.64 100.605 34.4213 100.093 31.776C100.946 27.8507 102.525 24.2667 104.829 21.024C107.218 17.7813 110.205 15.008 113.789 12.704C117.373 10.4 121.512 8.65068 126.205 7.45601C130.898 6.17601 135.933 5.53601 141.309 5.53601C148.136 5.53601 154.408 6.56001 160.125 8.60801C165.842 10.5707 170.749 13.344 174.845 16.928C178.941 20.512 182.141 24.8213 184.445 29.856C186.749 34.8907 187.901 40.48 187.901 46.624C187.901 54.9867 186.365 62.9653 183.293 70.56C180.221 78.1547 176.04 84.8534 170.749 90.656C165.544 96.4587 159.485 101.067 152.573 104.48C145.661 107.979 138.408 109.728 130.813 109.728C123.816 109.728 117.8 108.32 112.765 105.504C107.816 102.773 104.104 98.72 101.629 93.344ZM146.813 11.936C142.546 11.936 138.493 12.5333 134.653 13.728C138.408 15.0933 141.522 16.544 143.997 18.08C146.472 19.5307 148.178 20.6827 149.117 21.536C148.434 22.4747 147.41 24.1387 146.045 26.528C144.765 28.9173 143.229 31.8187 141.437 35.232C139.73 38.6453 137.896 42.4 135.933 46.496C133.97 50.5067 132.05 54.6453 130.173 58.912C125.309 69.7494 121.768 78.2827 119.549 84.512C117.416 90.7414 116.349 95.0507 116.349 97.44C117.544 97.8667 118.994 98.1653 120.701 98.336C122.408 98.5067 124.242 98.592 126.205 98.592C133.117 98.592 139.645 97.0134 145.789 93.856C152.018 90.6134 157.437 86.304 162.045 80.928C166.738 75.552 170.408 69.3227 173.053 62.24C175.784 55.072 177.149 47.5627 177.149 39.712C177.149 30.9227 174.418 24.096 168.957 19.232C163.496 14.368 156.114 11.936 146.813 11.936Z"/>
<path d="M201.254 93.344C202.534 90.528 204.07 86.9013 205.862 82.464C207.654 78.0267 209.531 73.248 211.494 68.128C213.457 62.9227 215.462 57.632 217.51 52.256C219.558 46.7947 221.478 41.632 223.27 36.768C225.062 31.904 226.598 27.552 227.878 23.712C229.243 19.872 230.225 16.928 230.822 14.88C225.446 17.0987 220.838 20.4693 216.998 24.992C213.158 29.5147 210.257 35.1893 208.294 42.016C206.331 41.3333 204.539 40.1387 202.918 38.432C201.297 36.64 200.23 34.4213 199.718 31.776C200.571 27.8507 202.15 24.2667 204.454 21.024C206.843 17.7813 209.83 15.008 213.414 12.704C216.998 10.4 221.137 8.65068 225.83 7.45601C230.523 6.17601 235.558 5.53601 240.934 5.53601C247.761 5.53601 254.033 6.56001 259.75 8.60801C265.467 10.5707 270.374 13.344 274.47 16.928C278.566 20.512 281.766 24.8213 284.07 29.856C286.374 34.8907 287.526 40.48 287.526 46.624C287.526 54.9867 285.99 62.9653 282.918 70.56C279.846 78.1547 275.665 84.8534 270.374 90.656C265.169 96.4587 259.11 101.067 252.198 104.48C245.286 107.979 238.033 109.728 230.438 109.728C223.441 109.728 217.425 108.32 212.39 105.504C207.441 102.773 203.729 98.72 201.254 93.344ZM246.438 11.936C242.171 11.936 238.118 12.5333 234.278 13.728C238.033 15.0933 241.147 16.544 243.622 18.08C246.097 19.5307 247.803 20.6827 248.742 21.536C248.059 22.4747 247.035 24.1387 245.67 26.528C244.39 28.9173 242.854 31.8187 241.062 35.232C239.355 38.6453 237.521 42.4 235.558 46.496C233.595 50.5067 231.675 54.6453 229.798 58.912C224.934 69.7494 221.393 78.2827 219.174 84.512C217.041 90.7414 215.974 95.0507 215.974 97.44C217.169 97.8667 218.619 98.1653 220.326 98.336C222.033 98.5067 223.867 98.592 225.83 98.592C232.742 98.592 239.27 97.0134 245.414 93.856C251.643 90.6134 257.062 86.304 261.67 80.928C266.363 75.552 270.033 69.3227 272.678 62.24C275.409 55.072 276.774 47.5627 276.774 39.712C276.774 30.9227 274.043 24.096 268.582 19.232C263.121 14.368 255.739 11.936 246.438 11.936Z"/>
<path d="M345.935 46.624C348.666 46.624 350.799 47.392 352.335 48.928C353.956 50.464 354.767 52.5974 354.767 55.328C354.767 56.0107 354.724 56.736 354.639 57.504C354.554 58.1867 354.383 58.784 354.127 59.296C353.018 59.1253 351.78 58.9974 350.415 58.912C349.05 58.7414 347.428 58.656 345.551 58.656C341.711 58.656 337.871 58.9973 334.031 59.68C330.191 60.3627 326.522 60.9173 323.023 61.344C319.183 70.3893 316.026 78.88 313.551 86.816C311.076 94.752 309.156 102.603 307.791 110.368C304.89 109.685 302.33 108.448 300.111 106.656C297.892 104.864 295.802 102.347 293.839 99.104C294.436 97.7387 295.162 96.1174 296.015 94.24C296.868 92.2774 297.892 89.8453 299.087 86.944C300.282 83.9573 301.69 80.3733 303.311 76.192C305.018 71.9253 307.023 66.848 309.327 60.96C305.743 59.7653 303.396 57.6747 302.287 54.688C302.714 54.2614 303.908 53.792 305.871 53.28C307.834 52.6827 310.223 52.0427 313.039 51.36C314.319 48.032 315.428 45.088 316.367 42.528C317.306 39.8827 318.159 37.408 318.927 35.104C319.695 32.7147 320.378 30.4107 320.975 28.192C321.658 25.888 322.255 23.456 322.767 20.896H322.127C318.884 20.896 316.239 20.128 314.191 18.592C312.228 17.056 311.247 15.0507 311.247 12.576C311.247 11.8933 311.332 11.0827 311.503 10.144C311.759 9.20534 312.058 8.39468 312.399 7.71201C314.02 7.96801 315.599 8.13868 317.135 8.22401C318.756 8.30935 320.847 8.35201 323.407 8.35201C328.783 8.35201 333.818 8.22401 338.511 7.96801C343.204 7.62668 347.428 7.28534 351.183 6.94401C355.023 6.60268 358.308 6.30401 361.039 6.04801C363.77 5.70668 365.86 5.53601 367.311 5.53601C369.274 5.53601 371.023 6.56001 372.559 8.60801C374.095 10.656 375.29 13.5573 376.143 17.312C373.412 17.056 371.194 16.8853 369.487 16.8C367.866 16.7147 366.415 16.672 365.135 16.672C360.783 16.672 356.772 16.8853 353.103 17.312C349.519 17.6533 346.106 18.08 342.863 18.592C342.351 19.36 341.754 20.3413 341.071 21.536C340.474 22.7307 339.663 24.4373 338.639 26.656C337.615 28.7893 336.292 31.6053 334.671 35.104C333.135 38.6027 331.172 43.04 328.783 48.416C332.111 47.904 335.268 47.4774 338.255 47.136C341.327 46.7947 343.887 46.624 345.935 46.624Z"/>
<path d="M410.035 55.84C416.435 48.8427 422.152 41.4187 427.187 33.568C432.307 25.7173 437.043 16.8853 441.395 7.07201C443.614 7.32801 445.747 7.92534 447.795 8.86401C449.843 9.80268 451.464 10.8693 452.659 12.064C447.966 17.696 443.699 22.816 439.859 27.424C436.104 32.032 432.648 36.384 429.491 40.48C426.334 44.4907 423.39 48.3733 420.659 52.128C418.014 55.7973 415.411 59.5093 412.851 63.264C411.571 67.616 410.376 72.0107 409.267 76.448C408.158 80.8853 407.176 85.152 406.323 89.248C405.47 93.2587 404.787 96.9707 404.275 100.384C403.848 103.883 403.635 106.869 403.635 109.344C402.696 109.344 401.203 109.131 399.155 108.704C397.107 108.363 395.016 107.936 392.883 107.424C390.75 106.912 388.787 106.4 386.995 105.888C385.288 105.376 384.264 104.949 383.923 104.608C385.288 102.304 386.611 99.488 387.891 96.16C389.256 92.7467 390.579 89.2053 391.859 85.536C393.139 81.7813 394.376 78.0267 395.571 74.272C396.766 70.432 397.875 66.8907 398.899 63.648C396.766 56.992 394.675 50.7627 392.627 44.96C390.664 39.072 388.744 33.7813 386.867 29.088C384.99 24.3093 383.198 20.2133 381.491 16.8C379.784 13.3867 378.163 10.784 376.627 8.99201C377.48 8.65068 378.76 8.30934 380.467 7.96801C382.259 7.62668 384.179 7.28534 386.227 6.94401C388.36 6.60268 390.494 6.34668 392.627 6.17601C394.846 5.92001 396.808 5.74934 398.515 5.66401C398.515 7.79735 398.686 10.4 399.027 13.472C399.454 16.544 399.966 19.8293 400.563 23.328C401.246 26.8267 402.014 30.368 402.867 33.952C403.72 37.536 404.574 40.8213 405.427 43.808C406.28 46.7947 407.091 49.3973 407.859 51.616C408.712 53.7493 409.438 55.1573 410.035 55.84Z"/>
</mask>
<path d="M16.688 109.728C12.592 108.533 9.73335 107.339 8.11201 106.144C6.57601 104.949 5.80801 103.456 5.80801 101.664C5.80801 100.299 6.19201 98.3787 6.96001 95.904C7.72801 93.4294 8.83735 90.528 10.288 87.2C11.824 83.7867 13.616 80.032 15.664 75.936C17.7973 71.84 20.1867 67.4453 22.832 62.752C20.6133 62.6667 18.608 62.624 16.816 62.624C15.1093 62.5387 13.7013 62.496 12.592 62.496C13.104 61.216 14.5547 60.1067 16.944 59.168C19.3333 58.2293 22.4907 57.4187 26.416 56.736C29.744 51.1893 33.2853 45.8987 37.04 40.864C40.88 35.8293 44.72 31.2213 48.56 27.04C52.4 22.7733 56.24 19.0613 60.08 15.904C63.92 12.6613 67.5894 10.1013 71.088 8.22401C71.1734 7.62668 71.216 7.11468 71.216 6.68801C71.3014 6.26134 71.344 5.96268 71.344 5.79201C72.5387 5.79201 74.1174 6.09068 76.08 6.68801C78.128 7.28534 80.0907 8.01068 81.968 8.86401C83.9307 9.71735 85.6374 10.6133 87.088 11.552C88.624 12.4053 89.4774 13.1307 89.648 13.728C86.832 18.6773 84.0587 26.1013 81.328 36C78.5974 45.8133 76.336 57.5894 74.544 71.328C74.1174 74.7414 73.7334 78.624 73.392 82.976C73.136 87.328 73.008 92.192 73.008 97.568C73.008 99.4453 73.008 101.365 73.008 103.328C73.008 105.291 73.0934 107.339 73.264 109.472C73.0934 109.557 72.9227 109.6 72.752 109.6C72.5814 109.6 72.24 109.6 71.728 109.6C70.5334 109.6 69.1254 109.387 67.504 108.96C65.968 108.619 64.432 108.149 62.896 107.552C61.4454 107.04 60.1653 106.443 59.056 105.76C58.032 105.077 57.392 104.48 57.136 103.968C57.0507 102.859 57.008 101.749 57.008 100.64C57.008 99.616 57.008 98.5067 57.008 97.312C57.008 92.0213 57.1787 86.6453 57.52 81.184C57.9467 75.7227 58.6293 70.0907 59.568 64.288C58.3733 64.2027 56.7947 64.1173 54.832 64.032C52.8693 63.8613 50.6507 63.7333 48.176 63.648C45.7867 63.5627 43.184 63.4773 40.368 63.392C37.6374 63.2213 34.9493 63.0933 32.304 63.008C30.256 66.848 28.336 70.688 26.544 74.528C24.752 78.2827 23.216 82.08 21.936 85.92C20.4853 90.016 19.2907 94.112 18.352 98.208C17.4987 102.304 16.944 106.144 16.688 109.728ZM66.096 32.8C66.4373 31.6053 66.8214 29.984 67.248 27.936C67.76 25.8027 68.2294 23.584 68.656 21.28C66.5227 22.048 64.1333 23.456 61.488 25.504C58.928 27.552 56.24 30.112 53.424 33.184C50.6934 36.1707 47.8773 39.584 44.976 43.424C42.16 47.1787 39.4293 51.1893 36.784 55.456C43.952 54.8587 52.1014 54.4747 61.232 54.304C61.9147 50.72 62.64 47.1787 63.408 43.68C64.2614 40.096 65.1574 36.4693 66.096 32.8Z" stroke="white" stroke-width="10" mask="url(#path-1-outside-1_2_5)"/>
<path d="M101.629 93.344C102.909 90.528 104.445 86.9013 106.237 82.464C108.029 78.0267 109.906 73.248 111.869 68.128C113.832 62.9227 115.837 57.632 117.885 52.256C119.933 46.7947 121.853 41.632 123.645 36.768C125.437 31.904 126.973 27.552 128.253 23.712C129.618 19.872 130.6 16.928 131.197 14.88C125.821 17.0987 121.213 20.4693 117.373 24.992C113.533 29.5147 110.632 35.1893 108.669 42.016C106.706 41.3333 104.914 40.1387 103.293 38.432C101.672 36.64 100.605 34.4213 100.093 31.776C100.946 27.8507 102.525 24.2667 104.829 21.024C107.218 17.7813 110.205 15.008 113.789 12.704C117.373 10.4 121.512 8.65068 126.205 7.45601C130.898 6.17601 135.933 5.53601 141.309 5.53601C148.136 5.53601 154.408 6.56001 160.125 8.60801C165.842 10.5707 170.749 13.344 174.845 16.928C178.941 20.512 182.141 24.8213 184.445 29.856C186.749 34.8907 187.901 40.48 187.901 46.624C187.901 54.9867 186.365 62.9653 183.293 70.56C180.221 78.1547 176.04 84.8534 170.749 90.656C165.544 96.4587 159.485 101.067 152.573 104.48C145.661 107.979 138.408 109.728 130.813 109.728C123.816 109.728 117.8 108.32 112.765 105.504C107.816 102.773 104.104 98.72 101.629 93.344ZM146.813 11.936C142.546 11.936 138.493 12.5333 134.653 13.728C138.408 15.0933 141.522 16.544 143.997 18.08C146.472 19.5307 148.178 20.6827 149.117 21.536C148.434 22.4747 147.41 24.1387 146.045 26.528C144.765 28.9173 143.229 31.8187 141.437 35.232C139.73 38.6453 137.896 42.4 135.933 46.496C133.97 50.5067 132.05 54.6453 130.173 58.912C125.309 69.7494 121.768 78.2827 119.549 84.512C117.416 90.7414 116.349 95.0507 116.349 97.44C117.544 97.8667 118.994 98.1653 120.701 98.336C122.408 98.5067 124.242 98.592 126.205 98.592C133.117 98.592 139.645 97.0134 145.789 93.856C152.018 90.6134 157.437 86.304 162.045 80.928C166.738 75.552 170.408 69.3227 173.053 62.24C175.784 55.072 177.149 47.5627 177.149 39.712C177.149 30.9227 174.418 24.096 168.957 19.232C163.496 14.368 156.114 11.936 146.813 11.936Z" stroke="white" stroke-width="10" mask="url(#path-1-outside-1_2_5)"/>
<path d="M201.254 93.344C202.534 90.528 204.07 86.9013 205.862 82.464C207.654 78.0267 209.531 73.248 211.494 68.128C213.457 62.9227 215.462 57.632 217.51 52.256C219.558 46.7947 221.478 41.632 223.27 36.768C225.062 31.904 226.598 27.552 227.878 23.712C229.243 19.872 230.225 16.928 230.822 14.88C225.446 17.0987 220.838 20.4693 216.998 24.992C213.158 29.5147 210.257 35.1893 208.294 42.016C206.331 41.3333 204.539 40.1387 202.918 38.432C201.297 36.64 200.23 34.4213 199.718 31.776C200.571 27.8507 202.15 24.2667 204.454 21.024C206.843 17.7813 209.83 15.008 213.414 12.704C216.998 10.4 221.137 8.65068 225.83 7.45601C230.523 6.17601 235.558 5.53601 240.934 5.53601C247.761 5.53601 254.033 6.56001 259.75 8.60801C265.467 10.5707 270.374 13.344 274.47 16.928C278.566 20.512 281.766 24.8213 284.07 29.856C286.374 34.8907 287.526 40.48 287.526 46.624C287.526 54.9867 285.99 62.9653 282.918 70.56C279.846 78.1547 275.665 84.8534 270.374 90.656C265.169 96.4587 259.11 101.067 252.198 104.48C245.286 107.979 238.033 109.728 230.438 109.728C223.441 109.728 217.425 108.32 212.39 105.504C207.441 102.773 203.729 98.72 201.254 93.344ZM246.438 11.936C242.171 11.936 238.118 12.5333 234.278 13.728C238.033 15.0933 241.147 16.544 243.622 18.08C246.097 19.5307 247.803 20.6827 248.742 21.536C248.059 22.4747 247.035 24.1387 245.67 26.528C244.39 28.9173 242.854 31.8187 241.062 35.232C239.355 38.6453 237.521 42.4 235.558 46.496C233.595 50.5067 231.675 54.6453 229.798 58.912C224.934 69.7494 221.393 78.2827 219.174 84.512C217.041 90.7414 215.974 95.0507 215.974 97.44C217.169 97.8667 218.619 98.1653 220.326 98.336C222.033 98.5067 223.867 98.592 225.83 98.592C232.742 98.592 239.27 97.0134 245.414 93.856C251.643 90.6134 257.062 86.304 261.67 80.928C266.363 75.552 270.033 69.3227 272.678 62.24C275.409 55.072 276.774 47.5627 276.774 39.712C276.774 30.9227 274.043 24.096 268.582 19.232C263.121 14.368 255.739 11.936 246.438 11.936Z" stroke="white" stroke-width="10" mask="url(#path-1-outside-1_2_5)"/>
<path d="M345.935 46.624C348.666 46.624 350.799 47.392 352.335 48.928C353.956 50.464 354.767 52.5974 354.767 55.328C354.767 56.0107 354.724 56.736 354.639 57.504C354.554 58.1867 354.383 58.784 354.127 59.296C353.018 59.1253 351.78 58.9974 350.415 58.912C349.05 58.7414 347.428 58.656 345.551 58.656C341.711 58.656 337.871 58.9973 334.031 59.68C330.191 60.3627 326.522 60.9173 323.023 61.344C319.183 70.3893 316.026 78.88 313.551 86.816C311.076 94.752 309.156 102.603 307.791 110.368C304.89 109.685 302.33 108.448 300.111 106.656C297.892 104.864 295.802 102.347 293.839 99.104C294.436 97.7387 295.162 96.1174 296.015 94.24C296.868 92.2774 297.892 89.8453 299.087 86.944C300.282 83.9573 301.69 80.3733 303.311 76.192C305.018 71.9253 307.023 66.848 309.327 60.96C305.743 59.7653 303.396 57.6747 302.287 54.688C302.714 54.2614 303.908 53.792 305.871 53.28C307.834 52.6827 310.223 52.0427 313.039 51.36C314.319 48.032 315.428 45.088 316.367 42.528C317.306 39.8827 318.159 37.408 318.927 35.104C319.695 32.7147 320.378 30.4107 320.975 28.192C321.658 25.888 322.255 23.456 322.767 20.896H322.127C318.884 20.896 316.239 20.128 314.191 18.592C312.228 17.056 311.247 15.0507 311.247 12.576C311.247 11.8933 311.332 11.0827 311.503 10.144C311.759 9.20534 312.058 8.39468 312.399 7.71201C314.02 7.96801 315.599 8.13868 317.135 8.22401C318.756 8.30935 320.847 8.35201 323.407 8.35201C328.783 8.35201 333.818 8.22401 338.511 7.96801C343.204 7.62668 347.428 7.28534 351.183 6.94401C355.023 6.60268 358.308 6.30401 361.039 6.04801C363.77 5.70668 365.86 5.53601 367.311 5.53601C369.274 5.53601 371.023 6.56001 372.559 8.60801C374.095 10.656 375.29 13.5573 376.143 17.312C373.412 17.056 371.194 16.8853 369.487 16.8C367.866 16.7147 366.415 16.672 365.135 16.672C360.783 16.672 356.772 16.8853 353.103 17.312C349.519 17.6533 346.106 18.08 342.863 18.592C342.351 19.36 341.754 20.3413 341.071 21.536C340.474 22.7307 339.663 24.4373 338.639 26.656C337.615 28.7893 336.292 31.6053 334.671 35.104C333.135 38.6027 331.172 43.04 328.783 48.416C332.111 47.904 335.268 47.4774 338.255 47.136C341.327 46.7947 343.887 46.624 345.935 46.624Z" stroke="white" stroke-width="10" mask="url(#path-1-outside-1_2_5)"/>
<path d="M410.035 55.84C416.435 48.8427 422.152 41.4187 427.187 33.568C432.307 25.7173 437.043 16.8853 441.395 7.07201C443.614 7.32801 445.747 7.92534 447.795 8.86401C449.843 9.80268 451.464 10.8693 452.659 12.064C447.966 17.696 443.699 22.816 439.859 27.424C436.104 32.032 432.648 36.384 429.491 40.48C426.334 44.4907 423.39 48.3733 420.659 52.128C418.014 55.7973 415.411 59.5093 412.851 63.264C411.571 67.616 410.376 72.0107 409.267 76.448C408.158 80.8853 407.176 85.152 406.323 89.248C405.47 93.2587 404.787 96.9707 404.275 100.384C403.848 103.883 403.635 106.869 403.635 109.344C402.696 109.344 401.203 109.131 399.155 108.704C397.107 108.363 395.016 107.936 392.883 107.424C390.75 106.912 388.787 106.4 386.995 105.888C385.288 105.376 384.264 104.949 383.923 104.608C385.288 102.304 386.611 99.488 387.891 96.16C389.256 92.7467 390.579 89.2053 391.859 85.536C393.139 81.7813 394.376 78.0267 395.571 74.272C396.766 70.432 397.875 66.8907 398.899 63.648C396.766 56.992 394.675 50.7627 392.627 44.96C390.664 39.072 388.744 33.7813 386.867 29.088C384.99 24.3093 383.198 20.2133 381.491 16.8C379.784 13.3867 378.163 10.784 376.627 8.99201C377.48 8.65068 378.76 8.30934 380.467 7.96801C382.259 7.62668 384.179 7.28534 386.227 6.94401C388.36 6.60268 390.494 6.34668 392.627 6.17601C394.846 5.92001 396.808 5.74934 398.515 5.66401C398.515 7.79735 398.686 10.4 399.027 13.472C399.454 16.544 399.966 19.8293 400.563 23.328C401.246 26.8267 402.014 30.368 402.867 33.952C403.72 37.536 404.574 40.8213 405.427 43.808C406.28 46.7947 407.091 49.3973 407.859 51.616C408.712 53.7493 409.438 55.1573 410.035 55.84Z" stroke="white" stroke-width="10" mask="url(#path-1-outside-1_2_5)"/>
</svg>
